<svg xmlns="http://www.w3.org/2000/svg" width="112" height="31.58" viewBox="0 0 112 31.58">
    <defs>
        <clipPath id="xfall5hq2a">
            <path data-name="사각형 12225" style="fill:none" d="M0 0h112v31.58H0z"/>
        </clipPath>
    </defs>
    <g data-name="그룹 30149" style="clip-path:url(#xfall5hq2a)">
        <path data-name="패스 15741" d="M89.544 151.539a1.532 1.532 0 0 1-.373.965 4.235 4.235 0 0 1-.945.855q-.287.192-.582.359t-.606.3q-.31.137-.583.241t-.512.174a5.977 5.977 0 0 0-.706.282l-.078.041-.114.061a.745.745 0 0 1-.208.09 2.761 2.761 0 0 1-.451.078.478.478 0 0 1-.322-.114.543.543 0 0 1-.177-.3q-.039-.165-.057-.275a1.129 1.129 0 0 1-.018-.169.806.806 0 0 1 .024-.161.756.756 0 0 0 .027-.184 1.322 1.322 0 0 1 .008-.135c.005-.051.013-.109.024-.174l.025-.159.014-.092.059-.371q.043-.272.11-.723.039-.239.09-.506t.118-.569l.018-.071c.007-.029.015-.063.026-.1q.031-.118.047-.2a.841.841 0 0 0 .016-.157.2.2 0 0 0-.047-.133.688.688 0 0 0-.133-.114.706.706 0 0 1-.116-.1.194.194 0 0 1-.033-.124.486.486 0 0 1 .133-.314.384.384 0 0 1 .286-.161 4.358 4.358 0 0 1 .482.035q.3.035.416.035.2 0 .608-.023t.6-.024a6.06 6.06 0 0 1 1.071.09 2.811 2.811 0 0 1 .906.322 3.382 3.382 0 0 1 .322.224 1.5 1.5 0 0 1 .42.588 1.784 1.784 0 0 1 .208.714m-.682 0a.969.969 0 0 0-.4-.835 2.2 2.2 0 0 0-.941-.377q-.271-.043-.551-.067t-.575-.023q-.09 0-.188.006l-.208.014-.408.039q-.192.02-.416.027-.055.259-.11.539t-.11.586c-.008.05-.02.114-.035.194l-.059.3c-.021.118-.041.225-.061.322s-.036.187-.049.271l-.039.261a7.636 7.636 0 0 0-.061.55c-.007.091-.01.175-.01.253a1.043 1.043 0 0 0 .09.467 3.95 3.95 0 0 0 .6-.129q.153-.043.32-.1t.347-.122l.323-.116q.14-.049.241-.08a4.674 4.674 0 0 0 1.573-.741 1.783 1.783 0 0 0 .133-.141q.074-.086.165-.208a3.45 3.45 0 0 0 .306-.49.928.928 0 0 0 .122-.4" transform="translate(-70.349 -125.548)" style="fill:#a9a9aa"/>
        <path data-name="패스 15742" d="M127.3 152.4a.437.437 0 0 1-.177.318.5.5 0 0 1-.337.157 2.635 2.635 0 0 1-.922-.62 4.8 4.8 0 0 1-.437-.43q-.218-.241-.488-.574-.043-.055-.106-.129t-.149-.169l-.288-.335a2.932 2.932 0 0 1-.226-.3q-.188.145-.4.339a5.54 5.54 0 0 0-.4.406q-.381.412-.71.828-.055.067-.129.161l-.173.216q-.1.122-.178.229t-.147.206l-.051.086a2.159 2.159 0 0 1-.067.11.614.614 0 0 1-.073.094q-.037.039-.061.031-.094 0-.173-.161a.875.875 0 0 1-.075-.384 1.177 1.177 0 0 1 .294-.675 7.573 7.573 0 0 1 .749-.808l.43-.408.386-.369q.365-.345.365-.459a4.4 4.4 0 0 0-.408-.824l-.341-.618-.212-.386a1.015 1.015 0 0 1-.145-.427.9.9 0 0 1 .1-.369q.1-.22.223-.22t.224.22c.021.042.044.092.069.151s.054.126.088.2.065.148.094.216l.086.2q.074.176.159.339t.175.32q.094.157.214.341t.265.4q.22-.247.455-.479l.529-.529q.29-.29.4-.416c.036-.039.08-.088.131-.147s.1-.123.159-.194c.029-.036.053-.069.075-.1s.04-.054.059-.075l.068-.088c.028-.035.059-.075.1-.12a.557.557 0 0 1 .463-.208.278.278 0 0 1 .145.037.344.344 0 0 1 .106.1.437.437 0 0 1 .065.143.673.673 0 0 1 .021.169q0 .243-.337.243a.222.222 0 0 0-.137.063 1.222 1.222 0 0 0-.151.155 3.41 3.41 0 0 0-.149.194l-.124.173q-.149.2-.3.37t-.288.3l-.173.161q-.114.106-.29.263t-.3.286q-.132.129-.222.231.18.224.357.437t.353.418q.177.2.361.4t.384.388a4.735 4.735 0 0 0 .383.333 2.981 2.981 0 0 0 .355.239 1.224 1.224 0 0 0 .188.09l.09.031.043.016a.191.191 0 0 1 .133.2" transform="translate(-102.009 -123.315)" style="fill:#a9a9aa"/>
        <path data-name="패스 15743" d="M188.979 150.107a.182.182 0 0 1-.041.118.4.4 0 0 1-.106.09.782.782 0 0 1-.139.067 1.094 1.094 0 0 1-.145.043q-.161.035-.329.067l-.373.067a.411.411 0 0 0-.122.041.281.281 0 0 0-.106.088 1.676 1.676 0 0 0-.141.233q-.067.131-.131.267l-.128.265a1.578 1.578 0 0 1-.129.223q-.133.188-.227.329a.6.6 0 0 0-.094.169q0 .094.3.22a1.673 1.673 0 0 0 .635.125 1.284 1.284 0 0 0 .141-.013l.218-.031.216-.031a1.172 1.172 0 0 1 .143-.014.569.569 0 0 1 .227.041.178.178 0 0 1 .094.182c0 .016-.023.05-.069.1a.914.914 0 0 1-.2.161 1.559 1.559 0 0 1-.31.147 1.193 1.193 0 0 1-.4.065 2.34 2.34 0 0 1-1.079-.208.634.634 0 0 0-.123-.086q-.089-.051-.183-.1l-.165-.084-.074-.035a.57.57 0 0 0-.065.037l-.153.092-.2.122-.2.122-.153.094-.063.039q-.1.039-.227.084t-.253.084a2.868 2.868 0 0 1-.249.065 1.09 1.09 0 0 1-.22.025 2.543 2.543 0 0 1-1.059-.22 1.266 1.266 0 0 1-.339-.227 1.581 1.581 0 0 1-.255-.3 1.408 1.408 0 0 1-.159-.335 1.068 1.068 0 0 1-.055-.325 1.055 1.055 0 0 1 .037-.243 2.765 2.765 0 0 1 .1-.3q.059-.155.128-.294a1.23 1.23 0 0 1 .127-.214 3.68 3.68 0 0 1 .478-.5 4.089 4.089 0 0 1 .569-.4.226.226 0 0 0 .055-.065.164.164 0 0 0 .031-.073c0-.057-.005-.142-.016-.253l-.033-.349-.031-.349a3.592 3.592 0 0 1-.014-.253 2.47 2.47 0 0 1 .067-.59 1.377 1.377 0 0 1 .208-.473.975.975 0 0 1 .361-.312 1.153 1.153 0 0 1 .529-.112.721.721 0 0 1 .38.1.9.9 0 0 1 .275.259 1.182 1.182 0 0 1 .165.355 1.448 1.448 0 0 1 .055.392 1.217 1.217 0 0 1-.075.435 1.663 1.663 0 0 1-.194.367 2.261 2.261 0 0 1-.275.322q-.155.151-.32.3-.243.212-.306.271t-.063.094a.491.491 0 0 0 .035.157q.035.1.084.2t.1.2q.053.094.084.141.137.2.269.363t.267.312a2.951 2.951 0 0 0 .282.267 2.784 2.784 0 0 0 .32.227.182.182 0 0 0 .118-.045.517.517 0 0 0 .1-.121 1.854 1.854 0 0 0 .1-.171l.1-.2c.026-.049.055-.11.086-.182l.1-.222q.049-.114.092-.22t.071-.176q-.079 0-.188-.016l-.214-.023-.174-.02-.075-.008-.163-.051a.223.223 0 0 1-.1-.057.212.212 0 0 1-.049-.106 1.545 1.545 0 0 1-.022-.2.133.133 0 0 1 .053-.1.462.462 0 0 1 .125-.075.9.9 0 0 1 .145-.045.58.58 0 0 1 .115-.016.465.465 0 0 1 .161.027l.163.061a1.675 1.675 0 0 0 .2.061 1.226 1.226 0 0 0 .282.027q.078 0 .2-.01l.265-.023.294-.031.287-.031.241-.023c.071-.007.124-.01.161-.01a.611.611 0 0 1 .239.039.134.134 0 0 1 .09.129m-3.361 2.228a1.583 1.583 0 0 0-.174-.2q-.116-.114-.241-.229t-.235-.222a1.415 1.415 0 0 1-.161-.177 3.48 3.48 0 0 1-.155-.241l-.178-.29-.171-.275q-.08-.127-.131-.194a1.566 1.566 0 0 0-.463.349 2.171 2.171 0 0 0-.184.232 2.048 2.048 0 0 0-.159.269 1.664 1.664 0 0 0-.11.286 1.059 1.059 0 0 0-.041.284.572.572 0 0 0 .112.345 1.034 1.034 0 0 0 .281.261 1.392 1.392 0 0 0 .365.165 1.3 1.3 0 0 0 .361.057 1.265 1.265 0 0 0 .314-.043 3.217 3.217 0 0 0 .339-.108c.114-.043.225-.089.333-.137l.3-.135m-.251-4.13a.3.3 0 0 0-.039-.153.689.689 0 0 0-.11-.153.668.668 0 0 0-.147-.118.271.271 0 0 0-.151-.043.321.321 0 0 0-.224.118.753.753 0 0 0-.127.237 1.188 1.188 0 0 0-.057.279q-.012.143-.012.241v.324q0 .151.006.269a1.285 1.285 0 0 0 .023.2.293.293 0 0 0 .049.124 2.108 2.108 0 0 0 .3-.28 2.434 2.434 0 0 0 .265-.347 1.344 1.344 0 0 0 .22-.7" transform="translate(-153.178 -123.54)" style="fill:#a9a9aa"/>
        <path data-name="패스 15744" d="M248.827 149.858q.047-.184.112-.465t.133-.61q.069-.33.139-.689t.129-.7q.059-.337.1-.631t.059-.5a1.6 1.6 0 0 0 0-.174.91.91 0 0 1 .006-.18.489.489 0 0 1 .055-.169.337.337 0 0 1 .153-.135.474.474 0 0 1 .243-.059.6.6 0 0 1 .239.078.173.173 0 0 1 .055.086 1.612 1.612 0 0 1 .053.165q.026.094.047.2c.014.069.028.129.041.178a3.1 3.1 0 0 0 .167.451q.12.271.3.594t.4.686q.222.363.467.726t.5.708q.257.345.508.639.106-.408.184-.777t.143-.724q.065-.355.124-.706t.118-.728q.031-.192.067-.429t.067-.479q.031-.241.053-.467t.025-.39v-.133q0-.067.006-.128a.461.461 0 0 1 .027-.118.261.261 0 0 1 .069-.1.543.543 0 0 1 .227-.137.953.953 0 0 1 .216-.023.131.131 0 0 1 .1.063.676.676 0 0 1 .082.149 1.16 1.16 0 0 1 .057.178 1 1 0 0 1 .026.147.739.739 0 0 1-.016.163c-.013.075-.029.155-.049.241l-.061.255-.051.2q-.09.357-.182.786t-.177.869q-.084.44-.159.859t-.129.757q-.055.337-.084.559a1.9 1.9 0 0 0-.026.265c0 .039 0 .084.006.133s0 .1 0 .147v.137a.93.93 0 0 0 0 .1.376.376 0 0 1-.018.163.359.359 0 0 1-.159.192.625.625 0 0 1-.094.045 1.032 1.032 0 0 1-.118.027.769.769 0 0 1-.131.012.709.709 0 0 1-.122-.01.138.138 0 0 1-.084-.041 2.256 2.256 0 0 1-.249-.273.713.713 0 0 1-.131-.257.357.357 0 0 0-.039-.1c-.021-.038-.044-.076-.069-.114l-.072-.106a.828.828 0 0 0-.059-.076q-.255-.329-.5-.667t-.5-.718q-.249-.38-.5-.816t-.529-.953q-.11.392-.2.835t-.157.871q-.071.428-.125.81l-.094.653a1.337 1.337 0 0 0-.012.194v.233q0 .118-.008.222a.569.569 0 0 1-.031.163.68.68 0 0 1-.061.1.931.931 0 0 1-.094.114.575.575 0 0 1-.114.092.228.228 0 0 1-.12.037.374.374 0 0 1-.178-.035.24.24 0 0 1-.1-.1.557.557 0 0 1-.051-.171 2.917 2.917 0 0 1-.027-.235.919.919 0 0 1 .01-.163c.009-.075.022-.157.039-.247s.036-.184.057-.28.043-.187.067-.271" transform="translate(-208.707 -121.471)" style="fill:#a9a9aa"/>
        <path data-name="패스 15745" d="M295.031 158.312a.529.529 0 0 1-.086.208 7.118 7.118 0 0 1-.457.588 7.027 7.027 0 0 1-1.13 1.053 4.85 4.85 0 0 1-.622.4 3.268 3.268 0 0 1-.626.257 2.059 2.059 0 0 1-.6.086 1.282 1.282 0 0 1-.975-.365 1.547 1.547 0 0 1-.347-1.1 3.819 3.819 0 0 1 .19-1.2 3.317 3.317 0 0 1 .649-1.118 1.7 1.7 0 0 1 .194-.181 1.674 1.674 0 0 1 .227-.153 1.285 1.285 0 0 1 .247-.106 1.106 1.106 0 0 1 .257-.047.668.668 0 0 1 .086.008.773.773 0 0 1 .118.027.814.814 0 0 1 .122.049.281.281 0 0 1 .094.072 1.184 1.184 0 0 1 .175.259.758.758 0 0 1 .072.294 1.128 1.128 0 0 1-.041.355 1.355 1.355 0 0 1-.165.357 2.373 2.373 0 0 1-.3.377 6.079 6.079 0 0 1-.455.418l-.375.312a5.283 5.283 0 0 1-.5.359.722.722 0 0 0 .229.579.932.932 0 0 0 .63.2 1.8 1.8 0 0 0 .451-.059 2.981 2.981 0 0 0 .447-.155 3.8 3.8 0 0 0 .426-.22q.206-.124.386-.253.333-.243.6-.484t.537-.508l.212-.212a.562.562 0 0 1 .278-.169c.031 0 .047.025.047.074m-3-.78a.7.7 0 0 0-.018-.116.334.334 0 0 0-.041-.1.251.251 0 0 0-.063-.069.138.138 0 0 0-.082-.025.621.621 0 0 0-.416.253 2.756 2.756 0 0 0-.392.637 1.245 1.245 0 0 0-.076.194q-.034.108-.063.22t-.051.222c-.014.073-.027.139-.037.2l.377-.282a4.149 4.149 0 0 0 .322-.267c.063-.057.127-.12.192-.186a1.945 1.945 0 0 0 .178-.21 1.034 1.034 0 0 0 .127-.227.585.585 0 0 0 .043-.239" transform="translate(-243.568 -131.47)" style="fill:#a9a9aa"/>
        <path data-name="패스 15746" d="M324.16 159.915a.946.946 0 0 1-.075.339 1.4 1.4 0 0 1-.2.355 4.7 4.7 0 0 1-.371.42q-.206.208-.429.4t-.455.353a4.785 4.785 0 0 1-.449.282 2.818 2.818 0 0 1-.41.188 1.023 1.023 0 0 1-.337.069.765.765 0 0 1-.322-.063.734.734 0 0 1-.237-.171.952.952 0 0 1-.167-.253 2.413 2.413 0 0 1-.116-.306 2.937 2.937 0 0 1-.08-.331q-.032-.171-.059-.332l-.222.335q-.124.187-.259.379t-.275.371q-.139.178-.261.312a3.227 3.227 0 0 1-.3.278 2.244 2.244 0 0 1-.345.233 2 2 0 0 1-.382.161 1.406 1.406 0 0 1-.412.061.559.559 0 0 1-.486-.255 1.023 1.023 0 0 1-.173-.588 2.215 2.215 0 0 1 .025-.327q.026-.171.059-.339t.065-.332a2.858 2.858 0 0 0 .043-.308c0-.039 0-.088.006-.147s0-.127 0-.206v-.362a2.268 2.268 0 0 1 .036-.324.483.483 0 0 1 .106-.231.319.319 0 0 1 .259-.1q.361 0 .361.5a1.163 1.163 0 0 1-.018.19l-.041.216-.049.227a5.592 5.592 0 0 0-.045.225l-.078.306q-.039.153-.073.3t-.053.28a1.737 1.737 0 0 0-.02.249.629.629 0 0 0 .016.131.6.6 0 0 0 .047.137.308.308 0 0 0 .085.108.188.188 0 0 0 .123.043.871.871 0 0 0 .42-.116 2.252 2.252 0 0 0 .406-.286 3.978 3.978 0 0 0 .365-.365q.171-.194.3-.355a3.023 3.023 0 0 0 .249-.38q.124-.22.235-.457t.214-.473l.184-.424q.184-.432.329-.432a.212.212 0 0 1 .141.033.188.188 0 0 1 .035.135 1.674 1.674 0 0 1-.018.212q-.017.134-.041.279t-.041.278a1.668 1.668 0 0 0-.018.208v.163q0 .096.006.2c0 .068.007.135.014.2a1.428 1.428 0 0 0 .026.171 1.636 1.636 0 0 0 .055.2 1.464 1.464 0 0 0 .1.233.729.729 0 0 0 .147.194.284.284 0 0 0 .2.08 1.156 1.156 0 0 0 .48-.125 3.672 3.672 0 0 0 .551-.324 6.5 6.5 0 0 0 .561-.443q.278-.245.518-.484l.19-.188a2.138 2.138 0 0 1 .176-.157.606.606 0 0 1 .129-.082c.033-.013.049 0 .049.031" transform="translate(-266.356 -133.54)" style="fill:#a9a9aa"/>
        <path data-name="패스 15747" d="M359.072 161.337v.069a.388.388 0 0 1-.02.09.419.419 0 0 1-.037.08.064.064 0 0 1-.057.035h-.079l-.116-.006-.116-.006h-.078a1.858 1.858 0 0 0-1.247.549 4.2 4.2 0 0 0-.847 1.31q-.067.169-.131.349t-.124.381a1.748 1.748 0 0 0-.045.194 1.14 1.14 0 0 1-.045.178c-.005.021-.027.041-.067.061a.977.977 0 0 1-.131.053q-.073.024-.139.039a.493.493 0 0 1-.09.016q-.271.015-.306-.561c-.008-.1-.011-.2-.01-.284s0-.167.01-.247.012-.163.022-.251.019-.186.029-.3l.047-.471q.027-.271.063-.537.035-.271.074-.516a4.108 4.108 0 0 1 .082-.406.656.656 0 0 1 .12-.275.3.3 0 0 1 .226-.1.2.2 0 0 1 .084.022.318.318 0 0 1 .083.057.421.421 0 0 1 .063.075.175.175 0 0 1 .029.071 2.029 2.029 0 0 1 0 .214c-.005.077-.014.157-.027.239s-.029.165-.047.249-.037.164-.055.239q-.055.223-.084.382t-.049.308q-.02.149-.039.32t-.051.422l.116-.255q.049-.106.088-.186.039-.08.072-.143c.022-.042.046-.086.073-.131l.086-.151q.047-.082.118-.2a3.348 3.348 0 0 1 .588-.743 2.218 2.218 0 0 1 .6-.414 1.542 1.542 0 0 1 .541-.169 1.723 1.723 0 0 1 .243.012 1.321 1.321 0 0 1 .271.059.784.784 0 0 1 .222.112.2.2 0 0 1 .092.167" transform="translate(-298.29 -134.954)" style="fill:#a9a9aa"/>
        <path data-name="패스 15748" d="M384.169 159.6a.343.343 0 0 1-.029.135.689.689 0 0 1-.077.134 1.025 1.025 0 0 1-.1.122.617.617 0 0 1-.116.092 1.381 1.381 0 0 1-.39.159 2.622 2.622 0 0 1-1.226-.008 2 2 0 0 1-.58-.253.766.766 0 0 1 .116.263 1.529 1.529 0 0 1 .025.3 1.613 1.613 0 0 1-.157.659 2.846 2.846 0 0 1-.4.655 2.81 2.81 0 0 1-.514.5 1.878 1.878 0 0 1-.335.2 2.305 2.305 0 0 1-.382.137 3.006 3.006 0 0 1-.416.078 3.7 3.7 0 0 1-.435.026.526.526 0 0 1-.3-.1 1.182 1.182 0 0 1-.259-.239 1.269 1.269 0 0 1-.182-.3.75.75 0 0 1-.069-.29 2.185 2.185 0 0 1 .084-.61 2.989 2.989 0 0 1 .228-.565 4.455 4.455 0 0 1 .331-.533q.188-.261.4-.52a2.7 2.7 0 0 1 .268-.284 2.6 2.6 0 0 1 .316-.249 1.892 1.892 0 0 1 .333-.178.856.856 0 0 1 .322-.069.594.594 0 0 1 .216.035.648.648 0 0 1 .171.1 1.281 1.281 0 0 1 .165.163q.085.1.194.22a.773.773 0 0 0 .194.1 3.431 3.431 0 0 0 .377.134q.217.064.457.114a2.176 2.176 0 0 0 .435.049q.2 0 .361-.014a2.731 2.731 0 0 0 .32-.045 2.2 2.2 0 0 0 .308-.086q.153-.055.33-.133a.413.413 0 0 1 .016.1m-2.93.941a1.449 1.449 0 0 0-.016-.249 1.141 1.141 0 0 0-.069-.263.575.575 0 0 0-.129-.2.227.227 0 0 0-.2-.063 1.568 1.568 0 0 1-.3-.149.378.378 0 0 0-.18-.078.217.217 0 0 0-.1.03.627.627 0 0 0-.114.08 1.313 1.313 0 0 0-.12.12c-.041.046-.08.094-.12.143q-.118.153-.218.279t-.188.249q-.089.123-.171.259c-.055.09-.11.191-.165.3a.939.939 0 0 0-.063.169q-.028.1-.047.2a2.08 2.08 0 0 0-.039.394.294.294 0 0 0 .035.124.715.715 0 0 0 .092.141.57.57 0 0 0 .13.116.26.26 0 0 0 .143.047 2.779 2.779 0 0 0 .341-.018 1.119 1.119 0 0 0 .261-.063 1.265 1.265 0 0 0 .241-.123q.121-.078.282-.2a1.32 1.32 0 0 0 .155-.137 3.599 3.599 0 0 0 .292-.347c.041-.061.086-.122.126-.182a.586.586 0 0 0 .067-.145 1.409 1.409 0 0 0 .043-.173 1.836 1.836 0 0 0 .028-.257" transform="translate(-317.563 -133.335)" style="fill:#a9a9aa"/>
        <path data-name="패스 15749" d="M413.069 149.569a.4.4 0 0 1-.049.163 2.039 2.039 0 0 1-.118.206q-.069.106-.139.2l-.11.143q-.145.173-.326.369t-.382.39q-.2.194-.418.371a4.334 4.334 0 0 1-.433.314 2.431 2.431 0 0 1-.427.218 1.113 1.113 0 0 1-.4.08.5.5 0 0 1-.472-.282.871.871 0 0 1-.086-.29 2.609 2.609 0 0 1-.022-.341q0-.086.018-.286t.039-.426l.039-.425q.018-.2.018-.286a.968.968 0 0 0-.006-.118l-.014-.086q-.247.043-.545.09t-.6.088q-.306.041-.6.071t-.539.041v.224c0 .089 0 .186-.008.29s-.008.214-.012.328-.008.226-.014.335q-.023.569-.061 1.079t-.1.932a4.911 4.911 0 0 1-.159.739 1.6 1.6 0 0 1-.243.506.3.3 0 0 1-.072.065.625.625 0 0 1-.1.051.594.594 0 0 1-.106.033.5.5 0 0 1-.1.012.485.485 0 0 1-.384-.173.61.61 0 0 1-.145-.412c0-.044.029-.067.086-.067a.429.429 0 0 1 .131.025.4.4 0 0 0 .12.026.254.254 0 0 0 .214-.108.864.864 0 0 0 .127-.257 1.727 1.727 0 0 0 .067-.3l.031-.249q.074-.7.1-1.449t.027-1.583l-.165.018a.658.658 0 0 1-.082.006h-.274a.828.828 0 0 1-.132-.012.557.557 0 0 1-.135-.039.3.3 0 0 1-.1-.072.159.159 0 0 1-.041-.112.351.351 0 0 1 .02-.126.162.162 0 0 1 .077-.082.454.454 0 0 1 .155-.045 1.9 1.9 0 0 1 .255-.014h.218a1.516 1.516 0 0 0 .218-.023c0-.115.008-.237.016-.365s.02-.259.035-.394.035-.27.057-.406a3.7 3.7 0 0 1 .088-.4 2.97 2.97 0 0 1 .253-.647 2.031 2.031 0 0 1 .327-.453 1.268 1.268 0 0 1 .369-.267.9.9 0 0 1 .376-.088.718.718 0 0 1 .514.174.735.735 0 0 1 .184.555 1.156 1.156 0 0 1-.016.159.982.982 0 0 1-.051.2.373.373 0 0 1-.069.131.094.094 0 0 1-.065.033q-.035 0-.086-.18a1.534 1.534 0 0 0-.061-.173.624.624 0 0 0-.078-.137.333.333 0 0 0-.108-.092.315.315 0 0 0-.149-.033.578.578 0 0 0-.4.155 1.158 1.158 0 0 0-.284.451 3.224 3.224 0 0 0-.171.732 7.835 7.835 0 0 0-.057 1c.089 0 .186-.007.292-.014s.215-.014.328-.024.225-.021.337-.035.22-.032.321-.053a7 7 0 0 0 .689-.161 5.156 5.156 0 0 0 .6-.216 1 1 0 0 0 .09-.043.185.185 0 0 1 .09-.02.16.16 0 0 1 .132.092.546.546 0 0 1 .057.28q0 .235-.023.481t-.049.488q-.026.243-.049.48t-.023.457a.854.854 0 0 0 .012.141.543.543 0 0 0 .037.129.254.254 0 0 0 .067.094.154.154 0 0 0 .1.035.753.753 0 0 0 .312-.078 2.148 2.148 0 0 0 .347-.2 4.113 4.113 0 0 0 .351-.28q.175-.155.329-.306t.277-.285l.2-.216q.121-.137.214-.253l.161-.2a1.457 1.457 0 0 1 .118-.133.136.136 0 0 1 .084-.047.124.124 0 0 1 .114.057.275.275 0 0 1 .035.147m-2.008-2.906a.361.361 0 0 1-.008.073.413.413 0 0 1-.033.09 1.54 1.54 0 0 1-.073.13l-.122.194-.078.047a.966.966 0 0 1-.1.051 1 1 0 0 1-.1.039.275.275 0 0 1-.08.016.285.285 0 0 1-.267-.153.581.581 0 0 1 .051-.143q.039-.08.088-.163a1.866 1.866 0 0 1 .1-.157 1.08 1.08 0 0 1 .1-.121.351.351 0 0 1 .232-.137.262.262 0 0 1 .1.022.388.388 0 0 1 .092.055.3.3 0 0 1 .067.075.159.159 0 0 1 .025.084" transform="translate(-340.74 -122.782)" style="fill:#a9a9aa"/>
        <path data-name="패스 15750" d="M452.863 161.39a.48.48 0 0 1-.025.151 1.313 1.313 0 0 1-.063.153 1.4 1.4 0 0 1-.084.149l-.09.139a3.6 3.6 0 0 1-.267.359q-.153.182-.327.355t-.359.325a4.337 4.337 0 0 1-.361.271l-.269.176a2 2 0 0 1-.257.141 1.56 1.56 0 0 1-.271.094 1.271 1.271 0 0 1-.31.035.816.816 0 0 1-.529-.165.762.762 0 0 1-.178-.214 1.7 1.7 0 0 1-.133-.292 3.114 3.114 0 0 1-.1-.341q-.041-.18-.069-.357-.035-.22-.067-.394a2.041 2.041 0 0 0-.072-.294.531.531 0 0 0-.1-.184.2.2 0 0 0-.153-.065.624.624 0 0 0-.141.016.45.45 0 0 0-.139.063.993.993 0 0 0-.159.133q-.087.086-.2.227t-.265.345q-.149.2-.349.486-.1.137-.231.3t-.273.314a3.3 3.3 0 0 1-.273.263.706.706 0 0 1-.235.145q-.345-.074-.345-.859a6.3 6.3 0 0 1 .047-.632q.024-.192.055-.4t.078-.42q.047-.21.108-.408a2.531 2.531 0 0 1 .143-.367.51.51 0 0 1 .082-.124.312.312 0 0 1 .088-.067.306.306 0 0 1 .094-.028.888.888 0 0 1 .1-.006c.042 0 .079.029.112.086a.487.487 0 0 1 .049.239.96.96 0 0 1-.016.176 1.516 1.516 0 0 1-.043.169l-.059.186a3.532 3.532 0 0 0-.063.229l-.053.235a6.778 6.778 0 0 0-.098.524 1.693 1.693 0 0 0-.018.229.48.48 0 0 0 .024.145q.11-.012.361-.329l.284-.353q.155-.192.335-.424.133-.173.265-.322a2.129 2.129 0 0 1 .273-.261 1.229 1.229 0 0 1 .3-.176.92.92 0 0 1 .351-.065.609.609 0 0 1 .339.088.644.644 0 0 1 .218.243 1.412 1.412 0 0 1 .128.371q.045.216.072.475l.045.435a1.567 1.567 0 0 0 .084.386.677.677 0 0 0 .18.277.487.487 0 0 0 .337.106.9.9 0 0 0 .353-.078 2.271 2.271 0 0 0 .388-.218 4.712 4.712 0 0 0 .422-.328q.218-.188.449-.412a2.483 2.483 0 0 0 .2-.218q.108-.131.212-.253t.194-.208a.25.25 0 0 1 .145-.086.22.22 0 0 1 .076.024.08.08 0 0 1 .053.078" transform="translate(-374.491 -134.646)" style="fill:#a9a9aa"/>
        <path data-name="패스 15751" d="M487.529 165.9a.39.39 0 0 1-.012.087.652.652 0 0 1-.033.1 1.043 1.043 0 0 1-.047.1.324.324 0 0 1-.053.074 1.844 1.844 0 0 1-.069.065l-.1.089q-.055.049-.12.1t-.135.1q-.243.173-.476.336a3.954 3.954 0 0 1-.481.287 2.794 2.794 0 0 1-.516.2 2.09 2.09 0 0 1-.582.071 1.08 1.08 0 0 1-.292-.041 1.165 1.165 0 0 1-.276-.117.907.907 0 0 1-.223-.182.626.626 0 0 1-.133-.234l-.239.19q-.126.1-.261.2t-.28.195a3.433 3.433 0 0 1-.3.173q-.086.043-.206.091t-.251.09a2.543 2.543 0 0 1-.263.067 1.241 1.241 0 0 1-.237.026.484.484 0 0 1-.276-.077.7.7 0 0 1-.192-.19.848.848 0 0 1-.114-.24.823.823 0 0 1-.037-.228 1.221 1.221 0 0 1 .075-.41 2.275 2.275 0 0 1 .194-.409 3.214 3.214 0 0 1 .267-.378 4.225 4.225 0 0 1 .288-.319 2.9 2.9 0 0 1 .353-.29 3.591 3.591 0 0 1 .423-.258 2.958 2.958 0 0 1 .431-.184 1.22 1.22 0 0 1 .377-.07h.174q.092 0 .182.008a1.613 1.613 0 0 1 .177.024.662.662 0 0 1 .157.05.325.325 0 0 1 .082.07.907.907 0 0 1 .157.243.278.278 0 0 1 .027.1.857.857 0 0 1-.059.267l-.116.381a1.187 1.187 0 0 0-.053.354.568.568 0 0 0 .043.211.64.64 0 0 0 .32.34.589.589 0 0 0 .261.056 1.651 1.651 0 0 0 .49-.078 2.951 2.951 0 0 0 .508-.213 4.828 4.828 0 0 0 .512-.313q.255-.178.5-.378l.069-.062.1-.088q.051-.044.1-.079a.162.162 0 0 1 .075-.035q.082 0 .082.125m-3.491-.252c0-.034 0-.077-.008-.128a.217.217 0 0 0-.051-.125.133.133 0 0 0-.106-.047h-.126a1.044 1.044 0 0 0-.265.033 1.35 1.35 0 0 0-.249.093 1.746 1.746 0 0 0-.233.137q-.112.078-.218.163a1.813 1.813 0 0 0-.19.173 2.81 2.81 0 0 0-.2.227q-.1.123-.186.258a2.575 2.575 0 0 0-.157.267 1.745 1.745 0 0 0-.106.255.743.743 0 0 0-.039.223.439.439 0 0 0 .01.08.42.42 0 0 0 .031.1.24.24 0 0 0 .059.08.132.132 0 0 0 .092.033 1.514 1.514 0 0 0 .451-.088 2.535 2.535 0 0 0 .669-.333 2.328 2.328 0 0 0 .512-.488 1.546 1.546 0 0 0 .306-.915" transform="translate(-403.999 -138.425)" style="fill:#a9a9aa"/>
        <path data-name="패스 15752" d="M523.566 161.39a.48.48 0 0 1-.025.151 1.3 1.3 0 0 1-.063.153 1.4 1.4 0 0 1-.084.149l-.09.139a3.6 3.6 0 0 1-.267.359q-.153.182-.327.355t-.359.325a4.327 4.327 0 0 1-.361.271l-.269.176a2 2 0 0 1-.257.141 1.56 1.56 0 0 1-.271.094 1.271 1.271 0 0 1-.31.035.816.816 0 0 1-.529-.165.76.76 0 0 1-.178-.214 1.7 1.7 0 0 1-.134-.292 3.128 3.128 0 0 1-.1-.341q-.041-.18-.069-.357-.035-.22-.067-.394a2.049 2.049 0 0 0-.072-.294.532.532 0 0 0-.1-.184.2.2 0 0 0-.153-.065.625.625 0 0 0-.141.016.451.451 0 0 0-.139.063.993.993 0 0 0-.159.133q-.087.086-.2.227t-.265.345q-.149.2-.349.486-.1.137-.231.3t-.273.314a3.3 3.3 0 0 1-.273.263.706.706 0 0 1-.235.145q-.345-.074-.345-.859a6.322 6.322 0 0 1 .047-.632q.024-.192.055-.4t.078-.42q.047-.21.108-.408a2.531 2.531 0 0 1 .143-.367.509.509 0 0 1 .082-.124.312.312 0 0 1 .088-.067.306.306 0 0 1 .094-.028.888.888 0 0 1 .1-.006c.042 0 .079.029.112.086a.487.487 0 0 1 .049.239.954.954 0 0 1-.016.176 1.49 1.49 0 0 1-.043.169l-.059.186a3.532 3.532 0 0 0-.063.229l-.053.235a6.778 6.778 0 0 0-.098.524 1.693 1.693 0 0 0-.018.229.48.48 0 0 0 .024.145q.11-.012.361-.329l.284-.353q.155-.192.335-.424.133-.173.265-.322a2.129 2.129 0 0 1 .272-.261 1.23 1.23 0 0 1 .3-.176.92.92 0 0 1 .351-.065.608.608 0 0 1 .339.088.643.643 0 0 1 .218.243 1.41 1.41 0 0 1 .128.371q.045.216.072.475l.045.435a1.57 1.57 0 0 0 .084.386.679.679 0 0 0 .18.277.487.487 0 0 0 .337.106.9.9 0 0 0 .353-.078 2.271 2.271 0 0 0 .388-.218 4.712 4.712 0 0 0 .422-.328q.218-.188.449-.412a2.484 2.484 0 0 0 .2-.218q.108-.131.212-.253t.194-.208a.25.25 0 0 1 .145-.086.221.221 0 0 1 .076.024.08.08 0 0 1 .053.078" transform="translate(-433.835 -134.646)" style="fill:#a9a9aa"/>
        <path data-name="패스 15753" d="M558.014 159.878a.373.373 0 0 1-.1.255 1.363 1.363 0 0 1-.11.1q-.075.065-.133.124l-.361.361q-.1.1-.19.182l-.155.139-.272.225-.367.3a7.138 7.138 0 0 1-.753.553 3.434 3.434 0 0 1-.739.339 2.7 2.7 0 0 1-.833.127 1.041 1.041 0 0 1-.484-.094 1.065 1.065 0 0 1-.361-.276 1.209 1.209 0 0 1-.224-.41 1.522 1.522 0 0 1-.072-.5 2.652 2.652 0 0 1 .221-1.043 5.208 5.208 0 0 1 .59-1.028 3.253 3.253 0 0 1 .482-.51.81.81 0 0 1 .506-.243c.081 0 .174.068.278.2a2.467 2.467 0 0 1 .149.218 2.27 2.27 0 0 1 .129.245 1.04 1.04 0 0 1 .118.369.854.854 0 0 1-.071.294q-.071.18-.169.18-.141 0-.235-.192a1.3 1.3 0 0 1-.069-.167c-.014-.046-.031-.095-.049-.147a2.228 2.228 0 0 0-.153-.337.71.71 0 0 0-.431.255 2.338 2.338 0 0 0-.171.245q-.088.143-.186.324a2.38 2.38 0 0 0-.145.318 3.3 3.3 0 0 0-.114.363 3.7 3.7 0 0 0-.074.372 2.368 2.368 0 0 0-.027.347.657.657 0 0 0 .2.443.593.593 0 0 0 .431.208 2.594 2.594 0 0 0 .953-.176 4.063 4.063 0 0 0 .867-.471 8.241 8.241 0 0 0 .835-.671l.4-.363.363-.327a.813.813 0 0 1 .474-.251q.055 0 .055.106" transform="translate(-464.04 -133.028)" style="fill:#a9a9aa"/>
        <path data-name="패스 15754" d="M585.363 158.312a.529.529 0 0 1-.086.208 7.118 7.118 0 0 1-.457.588 7.031 7.031 0 0 1-.537.559 7.1 7.1 0 0 1-.592.494 4.856 4.856 0 0 1-.622.4 3.268 3.268 0 0 1-.626.257 2.059 2.059 0 0 1-.6.086 1.282 1.282 0 0 1-.975-.365 1.547 1.547 0 0 1-.347-1.1 3.819 3.819 0 0 1 .19-1.2 3.315 3.315 0 0 1 .649-1.118 1.7 1.7 0 0 1 .194-.181 1.667 1.667 0 0 1 .227-.153 1.286 1.286 0 0 1 .247-.106 1.105 1.105 0 0 1 .257-.047.67.67 0 0 1 .086.008.773.773 0 0 1 .118.027.808.808 0 0 1 .122.049.282.282 0 0 1 .094.072 1.187 1.187 0 0 1 .175.259.759.759 0 0 1 .072.294 1.128 1.128 0 0 1-.041.355 1.361 1.361 0 0 1-.165.357 2.375 2.375 0 0 1-.3.377 6.067 6.067 0 0 1-.455.418l-.375.312a5.283 5.283 0 0 1-.5.359.723.723 0 0 0 .229.579.932.932 0 0 0 .63.2 1.8 1.8 0 0 0 .451-.059 2.981 2.981 0 0 0 .447-.155 3.808 3.808 0 0 0 .426-.22q.206-.124.386-.253.333-.243.6-.484t.537-.508l.212-.212a.562.562 0 0 1 .278-.169c.031 0 .047.025.047.074m-3-.78a.707.707 0 0 0-.018-.116.334.334 0 0 0-.041-.1.251.251 0 0 0-.063-.069.137.137 0 0 0-.082-.025.62.62 0 0 0-.416.253 2.758 2.758 0 0 0-.392.637 1.251 1.251 0 0 0-.076.194q-.034.108-.063.22t-.051.222c-.014.073-.027.139-.037.2l.377-.282a4.154 4.154 0 0 0 .322-.267c.063-.057.127-.12.192-.186a1.941 1.941 0 0 0 .178-.21 1.034 1.034 0 0 0 .127-.227.586.586 0 0 0 .043-.239" transform="translate(-487.258 -131.47)" style="fill:#a9a9aa"/>
        <path data-name="패스 15755" d="M0 15.521V.592h3.273A21.367 21.367 0 0 1 7.765.91a6.066 6.066 0 0 1 2.279 1.076 6.246 6.246 0 0 1 1.963 2.539 8.869 8.869 0 0 1 .668 3.538 8.761 8.761 0 0 1-.668 3.523 6.341 6.341 0 0 1-1.963 2.534 6.087 6.087 0 0 1-2.228 1.08 17.043 17.043 0 0 1-3.89.321H0zm2.427-2.193h2.039a10.534 10.534 0 0 0 2.524-.224 3.685 3.685 0 0 0 1.463-.755 4.492 4.492 0 0 0 1.27-1.8 6.816 6.816 0 0 0 .423-2.5 6.816 6.816 0 0 0-.423-2.5 4.5 4.5 0 0 0-1.27-1.8 3.766 3.766 0 0 0-1.514-.755 12.248 12.248 0 0 0-2.758-.224H2.427z"/>
        <path data-name="패스 15756" d="M20.681 15.521V-.001l9.484 9.127q.387.388.785.826t.836.989V.591h2.244v15.508l-9.679-9.287q-.388-.377-.75-.8t-.688-.877v10.386z"/>
        <path data-name="패스 15757" d="M42.676 15.521V.592h8.331v2.06h-5.9v3.742h5.9v2.132h-5.9v4.823h5.9v2.172z"/>
        <path data-name="패스 15758" d="M58.952.592h2.4v9.066a4.346 4.346 0 0 0 .933 3.034 4.326 4.326 0 0 0 5.568 0 4.344 4.344 0 0 0 .933-3.034V.592h2.427v9.29a6.1 6.1 0 0 1-1.53 4.533 7.81 7.81 0 0 1-9.208 0 6.117 6.117 0 0 1-1.519-4.538z"/>
        <path data-name="패스 15759" d="M82.05 8.842v6.68h-2.274V.592h3.386a10.625 10.625 0 0 1 2.31.194 3.625 3.625 0 0 1 1.4.643 3.549 3.549 0 0 1 1.071 1.4 4.6 4.6 0 0 1 .377 1.876 4.19 4.19 0 0 1-.867 2.809 3.815 3.815 0 0 1-2.555 1.216l5.14 6.792h-2.743l-4.966-6.68zm.148-1.887h.438a4.9 4.9 0 0 0 2.562-.445 1.82 1.82 0 0 0 .632-1.591 2.031 2.031 0 0 0-.678-1.739 4.46 4.46 0 0 0-2.514-.5h-.44z"/>
        <path data-name="패스 15760" d="M112 8.087a7.6 7.6 0 0 1-2.335 5.537 8.162 8.162 0 0 1-2.6 1.7 7.959 7.959 0 0 1-3.039.592 8.06 8.06 0 0 1-3.075-.6 7.919 7.919 0 0 1-2.585-1.7 7.6 7.6 0 0 1-1.734-2.519 7.708 7.708 0 0 1-.591-3.018 7.758 7.758 0 0 1 .591-3.018 7.681 7.681 0 0 1 1.734-2.539 7.9 7.9 0 0 1 2.59-1.693 8.353 8.353 0 0 1 6.124 0 7.9 7.9 0 0 1 4.324 4.247 7.683 7.683 0 0 1 .6 3m-2.529 0a5.676 5.676 0 0 0-.413-2.152 5.577 5.577 0 0 0-1.188-1.815 5.3 5.3 0 0 0-3.844-1.632 5.479 5.479 0 0 0-5.048 3.436 5.763 5.763 0 0 0-.408 2.162 5.657 5.657 0 0 0 .408 2.141 5.533 5.533 0 0 0 1.183 1.805 5.312 5.312 0 0 0 3.861 1.648 5.25 5.25 0 0 0 2.075-.418 5.483 5.483 0 0 0 1.769-1.213 5.6 5.6 0 0 0 1.6-3.947"/>
    </g>
</svg>
